ffmpeg started on 2016-12-12 at 10:57:20
Report written to "Output/theora/results/ffmpeg/sintel14000k.log"
Command line:
Tools/ffmpeg/ffmpeg -benchmark -y -i Input/y4m/sintel.y4m -c:v libtheora -b:v 14000k -an Output/theora/encoded/sintel14000k.mkv
ffmpeg version N-82227-gdb23fde Copyright (c) 2000-2016 the FFmpeg developers
  built with gcc 5.4.0 (Ubuntu 5.4.0-6ubuntu1~16.04.2) 20160609
  configuration: --prefix=/home/jaroslav/ffmpeg_build --pkg-config-flags=--static --extra-cflags=-I/home/jaroslav/ffmpeg_build/include --extra-ldflags=-L/home/jaroslav/ffmpeg_build/lib --bindir=/home/jaroslav/bin --enable-gpl --enable-libass --enable-libfdk-aac --enable-libfreetype --enable-libmp3lame --enable-libopus --enable-libtheora --enable-libvorbis --enable-libvpx --enable-libx264 --enable-libx265 --enable-nvenc --enable-libmfx --enable-libxvid --enable-libgsm --enable-libopencore-amrnb --enable-version3 --enable-nonfree
  libavutil      55. 35.100 / 55. 35.100
  libavcodec     57. 66.101 / 57. 66.101
  libavformat    57. 57.100 / 57. 57.100
  libavdevice    57.  2.100 / 57.  2.100
  libavfilter     6. 66.100 /  6. 66.100
  libswscale      4.  3.100 /  4.  3.100
  libswresample   2.  4.100 /  2.  4.100
  libpostproc    54.  2.100 / 54.  2.100
Input #0, yuv4mpegpipe, from 'Input/y4m/sintel.y4m':
  Duration: 00:00:20.83, start: 0.000000, bitrate: 2057307 kb/s
    Stream #0:0: Video: rawvideo (I420 / 0x30323449), yuv420p(progressive), 4096x1744, SAR 1:1 DAR 256:109, 24 fps, 24 tbr, 24 tbn, 24 tbc
Output #0, matroska, to 'Output/theora/encoded/sintel14000k.mkv':
  Metadata:
    encoder         : Lavf57.57.100
    Stream #0:0: Video: theora (libtheora) (theo / 0x6F656874), yuv420p, 4096x1744 [SAR 1:1 DAR 256:109], q=2-31, 14000 kb/s, 24 fps, 1k tbn, 24 tbc
    Metadata:
      encoder         : Lavc57.66.101 libtheora
Stream mapping:
  Stream #0:0 -> #0:0 (rawvideo (native) -> theora (libtheora))
Press [q] to stop, [?] for help
frame=    3 fps=0.0 q=-0.0 size=       4kB time=00:00:00.08 bitrate= 380.5kbits/s speed=0.109x    frame=    5 fps=3.3 q=-0.0 size=       4kB time=00:00:00.16 bitrate= 190.2kbits/s speed=0.111x    frame=    7 fps=3.2 q=-0.0 size=       4kB time=00:00:00.25 bitrate= 127.3kbits/s speed=0.113x    frame=    9 fps=3.2 q=-0.0 size=       4kB time=00:00:00.33 bitrate=  95.7kbits/s speed=0.117x    frame=   11 fps=3.1 q=-0.0 size=       4kB time=00:00:00.41 bitrate=  76.5kbits/s speed=0.12x    frame=   13 fps=3.1 q=-0.0 size=     916kB time=00:00:00.50 bitrate=14983.7kbits/s speed=0.121x    frame=   16 fps=3.2 q=-0.0 size=     916kB time=00:00:00.62 bitrate=11991.7kbits/s speed=0.126x    frame=   17 fps=2.1 q=-0.0 size=     916kB time=00:00:00.66 bitrate=11237.8kbits/s speed=0.0819x    frame=   18 fps=1.5 q=-0.0 size=     916kB time=00:00:00.70 bitrate=10587.9kbits/s speed=0.059x    frame=   19 fps=1.4 q=-0.0 size=     916kB time=00:00:00.75 bitrate=9995.8kbits/s speed=0.0534x    frame=   20 fps=1.4 q=-0.0 size=     916kB time=00:00:00.79 bitrate=9466.4kbits/s speed=0.0537x    frame=   22 fps=1.4 q=-0.0 size=     916kB time=00:00:00.87 bitrate=8569.4kbits/s speed=0.0568x    frame=   24 fps=1.5 q=-0.0 size=     916kB time=00:00:00.95 bitrate=7827.8kbits/s speed=0.0596x    frame=   26 fps=1.6 q=-0.0 size=    1802kB time=00:00:01.04 bitrate=14157.2kbits/s speed=0.0629x    frame=   28 fps=1.6 q=-0.0 size=    1802kB time=00:00:01.12 bitrate=13113.6kbits/s speed=0.0654x    frame=   30 fps=1.7 q=-0.0 size=    1802kB time=00:00:01.20 bitrate=12213.4kbits/s speed=0.0677x    frame=   32 fps=1.7 q=-0.0 size=    1802kB time=00:00:01.29 bitrate=11419.9kbits/s speed=0.0698x    frame=   34 fps=1.8 q=-0.0 size=    1802kB time=00:00:01.37 bitrate=10731.1kbits/s speed=0.0718x    frame=   36 fps=1.8 q=-0.0 size=    1802kB time=00:00:01.45 bitrate=10120.6kbits/s speed=0.0736x    frame=   38 fps=1.9 q=-0.0 size=    2565kB time=00:00:01.54 bitrate=13616.5kbits/s speed=0.0759x    frame=   40 fps=1.9 q=-0.0 size=    2565kB time=00:00:01.62 bitrate=12921.4kbits/s speed=0.0773x    frame=   42 fps=1.9 q=-0.0 size=    2565kB time=00:00:01.70 bitrate=12293.9kbits/s speed=0.0788x    frame=   44 fps=2.0 q=-0.0 size=    2565kB time=00:00:01.79 bitrate=11717.9kbits/s speed=0.0802x    frame=   46 fps=2.0 q=-0.0 size=    2565kB time=00:00:01.87 bitrate=11199.5kbits/s speed=0.0812x    frame=   48 fps=2.0 q=-0.0 size=    2565kB time=00:00:01.95 bitrate=10725.0kbits/s speed=0.0822x    frame=   50 fps=2.1 q=-0.0 size=    3377kB time=00:00:02.04 bitrate=13542.0kbits/s speed=0.0838x    frame=   52 fps=2.1 q=-0.0 size=    3623kB time=00:00:02.12 bitrate=13962.2kbits/s speed=0.0846x    frame=   54 fps=2.1 q=-0.0 size=    3728kB time=00:00:02.20 bitrate=13824.1kbits/s speed=0.0845x    frame=   56 fps=2.1 q=-0.0 size=    3728kB time=00:00:02.29 bitrate=13317.7kbits/s speed=0.0852x    frame=   58 fps=2.1 q=-0.0 size=    3728kB time=00:00:02.37 bitrate=12852.5kbits/s speed=0.0861x    frame=   60 fps=2.1 q=-0.0 size=    3728kB time=00:00:02.45 bitrate=12418.7kbits/s speed=0.087x    frame=   62 fps=2.1 q=-0.0 size=    3728kB time=00:00:02.54 bitrate=12008.4kbits/s speed=0.0879x    frame=   64 fps=2.2 q=-0.0 size=    3728kB time=00:00:02.62 bitrate=11628.9kbits/s speed=0.0887x    frame=   66 fps=2.2 q=-0.0 size=    4783kB time=00:00:02.70 bitrate=14463.2kbits/s speed=0.09x    frame=   68 fps=2.2 q=-0.0 size=    4899kB time=00:00:02.79 bitrate=14369.8kbits/s speed=0.0901x    frame=   70 fps=2.2 q=-0.0 size=    5018kB time=00:00:02.87 bitrate=14293.8kbits/s speed=0.0904x    frame=   72 fps=2.2 q=-0.0 size=    5140kB time=00:00:02.95 bitrate=14229.5kbits/s speed=0.0907x    frame=   74 fps=2.2 q=-0.0 size=    5201kB time=00:00:03.04 bitrate=14000.7kbits/s speed=0.091x    frame=   76 fps=2.2 q=-0.0 size=    5364kB time=00:00:03.12 bitrate=14056.0kbits/s speed=0.0914x    frame=   78 fps=2.2 q=-0.0 size=    5467kB time=00:00:03.20 bitrate=13957.5kbits/s speed=0.0916x    frame=   80 fps=2.2 q=-0.0 size=    5582kB time=00:00:03.29 bitrate=13885.4kbits/s speed=0.0917x    frame=   82 fps=2.2 q=-0.0 size=    5698kB time=00:00:03.37 bitrate=13825.2kbits/s speed=0.092x    frame=   84 fps=2.2 q=-0.0 size=    5827kB time=00:00:03.45 bitrate=13800.6kbits/s speed=0.0922x    frame=   86 fps=2.2 q=-0.0 size=    5955kB time=00:00:03.54 bitrate=13770.1kbits/s speed=0.0923x    frame=   88 fps=2.2 q=-0.0 size=    6075kB time=00:00:03.62 bitrate=13725.6kbits/s speed=0.0925x    frame=   90 fps=2.2 q=-0.0 size=    6207kB time=00:00:03.70 bitrate=13709.4kbits/s speed=0.0926x    frame=   92 fps=2.2 q=-0.0 size=    6350kB time=00:00:03.79 bitrate=13714.9kbits/s speed=0.0927x    frame=   94 fps=2.3 q=-0.0 size=    6498kB time=00:00:03.87 bitrate=13733.5kbits/s speed=0.0929x    frame=   96 fps=2.3 q=-0.0 size=    6647kB time=00:00:03.95 bitrate=13753.2kbits/s speed=0.093x    frame=   98 fps=2.3 q=-0.0 size=    6796kB time=00:00:04.04 bitrate=13770.6kbits/s speed=0.0931x    frame=  100 fps=2.3 q=-0.0 size=    6938kB time=00:00:04.12 bitrate=13775.4kbits/s speed=0.0935x    frame=  102 fps=2.3 q=-0.0 size=    6938kB time=00:00:04.20 bitrate=13503.7kbits/s speed=0.0937x    frame=  104 fps=2.3 q=-0.0 size=    6938kB time=00:00:04.29 bitrate=13239.5kbits/s speed=0.0942x    frame=  106 fps=2.3 q=-0.0 size=    6938kB time=00:00:04.37 bitrate=12988.4kbits/s speed=0.0947x    frame=  108 fps=2.3 q=-0.0 size=    7427kB time=00:00:04.45 bitrate=13645.7kbits/s speed=0.094x    frame=  110 fps=2.3 q=-0.0 size=    7651kB time=00:00:04.54 bitrate=13796.8kbits/s speed=0.0943x    frame=  112 fps=2.3 q=-0.0 size=    7651kB time=00:00:04.62 bitrate=13549.3kbits/s speed=0.0944x    frame=  114 fps=2.3 q=-0.0 size=    7651kB time=00:00:04.70 bitrate=13310.5kbits/s speed=0.0947x    frame=  116 fps=2.3 q=-0.0 size=    8071kB time=00:00:04.79 bitrate=13793.9kbits/s speed=0.0949x    frame=  117 fps=2.3 q=-0.0 size=    8071kB time=00:00:04.83 bitrate=13676.9kbits/s speed=0.0947x    frame=  119 fps=2.3 q=-0.0 size=    8071kB time=00:00:04.91 bitrate=13443.3kbits/s speed=0.095x    frame=  121 fps=2.3 q=-0.0 size=    8071kB time=00:00:05.00 bitrate=13220.1kbits/s speed=0.0952x    frame=  123 fps=2.3 q=-0.0 size=    8071kB time=00:00:05.08 bitrate=13004.3kbits/s speed=0.0955x    frame=  125 fps=2.3 q=-0.0 size=    8856kB time=00:00:05.16 bitrate=14038.5kbits/s speed=0.0955x    frame=  127 fps=2.3 q=-0.0 size=    9067kB time=00:00:05.25 bitrate=14145.9kbits/s speed=0.0953x    frame=  129 fps=2.3 q=-0.0 size=    9274kB time=00:00:05.33 bitrate=14243.8kbits/s speed=0.0951x    frame=  131 fps=2.3 q=-0.0 size=    9494kB time=00:00:05.41 bitrate=14354.4kbits/s speed=0.095x    frame=  133 fps=2.3 q=-0.0 size=    9734kB time=00:00:05.50 bitrate=14495.6kbits/s speed=0.0949x    frame=  135 fps=2.3 q=-0.0 size=    9976kB time=00:00:05.58 bitrate=14635.3kbits/s speed=0.0949x    frame=  137 fps=2.3 q=-0.0 size=   10212kB time=00:00:05.66 bitrate=14760.0kbits/s speed=0.0949x    frame=  139 fps=2.3 q=-0.0 size=   10446kB time=00:00:05.75 bitrate=14879.1kbits/s speed=0.0949x    frame=  141 fps=2.3 q=-0.0 size=   10446kB time=00:00:05.83 bitrate=14667.4kbits/s speed=0.095x    frame=  143 fps=2.3 q=-0.0 size=   10446kB time=00:00:05.91 bitrate=14459.3kbits/s speed=0.0954x    frame=  145 fps=2.3 q=-0.0 size=   10446kB time=00:00:06.00 bitrate=14259.3kbits/s speed=0.0957x    frame=  147 fps=2.3 q=-0.0 size=   10446kB time=00:00:06.08 bitrate=14064.7kbits/s speed=0.096x    frame=  149 fps=2.3 q=-0.0 size=   10446kB time=00:00:06.16 bitrate=13873.2kbits/s speed=0.0964x    frame=  151 fps=2.3 q=-0.0 size=   11334kB time=00:00:06.25 bitrate=14852.7kbits/s speed=0.0967x    frame=  154 fps=2.4 q=-0.0 size=   11334kB time=00:00:06.37 bitrate=14561.5kbits/s speed=0.0974x    frame=  156 fps=2.4 q=-0.0 size=   11334kB time=00:00:06.45 bitrate=14374.4kbits/s speed=0.0978x    frame=  157 fps=2.4 q=-0.0 size=   11679kB time=00:00:06.50 bitrate=14716.5kbits/s speed=0.0974x    frame=  159 fps=2.4 q=-0.0 size=   11679kB time=00:00:06.58 bitrate=14531.0kbits/s speed=0.0976x    frame=  161 fps=2.4 q=-0.0 size=   11679kB time=00:00:06.66 bitrate=14347.9kbits/s speed=0.0977x    frame=  163 fps=2.4 q=-0.0 size=   12038kB time=00:00:06.75 bitrate=14607.4kbits/s speed=0.0978x    frame=  165 fps=2.4 q=-0.0 size=   12197kB time=00:00:06.83 bitrate=14620.6kbits/s speed=0.0978x    frame=  167 fps=2.4 q=-0.0 size=   12358kB time=00:00:06.91 bitrate=14634.0kbits/s speed=0.0979x    frame=  169 fps=2.4 q=-0.0 size=   12519kB time=00:00:07.00 bitrate=14648.7kbits/s speed=0.0978x    frame=  171 fps=2.4 q=-0.0 size=   12682kB time=00:00:07.08 bitrate=14665.5kbits/s speed=0.0978x    frame=  173 fps=2.4 q=-0.0 size=   12838kB time=00:00:07.16 bitrate=14672.2kbits/s speed=0.0978x    frame=  175 fps=2.4 q=-0.0 size=   12997kB time=00:00:07.25 bitrate=14683.5kbits/s speed=0.0978x    frame=  177 fps=2.4 q=-0.0 size=   13150kB time=00:00:07.33 bitrate=14688.8kbits/s speed=0.0978x    frame=  179 fps=2.4 q=-0.0 size=   13296kB time=00:00:07.41 bitrate=14683.7kbits/s speed=0.0976x    frame=  181 fps=2.4 q=-0.0 size=   13442kB time=00:00:07.50 bitrate=14680.0kbits/s speed=0.0977x    frame=  183 fps=2.4 q=-0.0 size=   13592kB time=00:00:07.58 bitrate=14681.4kbits/s speed=0.0977x    frame=  185 fps=2.4 q=-0.0 size=   13667kB time=00:00:07.66 bitrate=14601.0kbits/s speed=0.0977x    frame=  187 fps=2.4 q=-0.0 size=   13667kB time=00:00:07.75 bitrate=14444.6kbits/s speed=0.098x    frame=  189 fps=2.4 q=-0.0 size=   13667kB time=00:00:07.83 bitrate=14291.6kbits/s speed=0.0982x    frame=  191 fps=2.4 q=-0.0 size=   13667kB time=00:00:07.91 bitrate=14139.9kbits/s speed=0.0983x    frame=  193 fps=2.4 q=-0.0 size=   14303kB time=00:00:08.00 bitrate=14644.6kbits/s speed=0.0984x    frame=  195 fps=2.4 q=-0.0 size=   14466kB time=00:00:08.08 bitrate=14659.5kbits/s speed=0.0983x    frame=  197 fps=2.4 q=-0.0 size=   14638kB time=00:00:08.16 bitrate=14681.4kbits/s speed=0.0981x    frame=  199 fps=2.4 q=-0.0 size=   14806kB time=00:00:08.25 bitrate=14700.6kbits/s speed=0.0979x    frame=  201 fps=2.4 q=-0.0 size=   14987kB time=00:00:08.33 bitrate=14731.7kbits/s speed=0.0978x    frame=  203 fps=2.4 q=-0.0 size=   15187kB time=00:00:08.41 bitrate=14779.5kbits/s speed=0.0977x    frame=  205 fps=2.4 q=-0.0 size=   15388kB time=00:00:08.50 bitrate=14828.6kbits/s speed=0.0975x    frame=  207 fps=2.3 q=-0.0 size=   15583kB time=00:00:08.58 bitrate=14871.1kbits/s speed=0.0974x    frame=  209 fps=2.3 q=-0.0 size=   15786kB time=00:00:08.66 bitrate=14918.8kbits/s speed=0.0972x    frame=  211 fps=2.3 q=-0.0 size=   15890kB time=00:00:08.75 bitrate=14875.2kbits/s speed=0.0971x    frame=  213 fps=2.3 q=-0.0 size=   15890kB time=00:00:08.83 bitrate=14735.4kbits/s speed=0.0973x    frame=  215 fps=2.4 q=-0.0 size=   15890kB time=00:00:08.91 bitrate=14596.6kbits/s speed=0.0975x    frame=  217 fps=2.4 q=-0.0 size=   15890kB time=00:00:09.00 bitrate=14462.0kbits/s speed=0.0977x    frame=  219 fps=2.4 q=-0.0 size=   15890kB time=00:00:09.08 bitrate=14329.9kbits/s speed=0.0979x    frame=  221 fps=2.4 q=-0.0 size=   15890kB time=00:00:09.16 bitrate=14198.6kbits/s speed=0.0982x    frame=  224 fps=2.4 q=-0.0 size=   16766kB time=00:00:09.29 bitrate=14779.3kbits/s speed=0.0987x    frame=  226 fps=2.4 q=-0.0 size=   16766kB time=00:00:09.37 bitrate=14648.4kbits/s speed=0.099x    frame=  228 fps=2.4 q=-0.0 size=   16766kB time=00:00:09.45 bitrate=14519.9kbits/s speed=0.0992x    frame=  230 fps=2.4 q=-0.0 size=   16766kB time=00:00:09.54 bitrate=14392.1kbits/s speed=0.0994x    frame=  232 fps=2.4 q=-0.0 size=   16766kB time=00:00:09.62 bitrate=14268.0kbits/s speed=0.0996x    frame=  234 fps=2.4 q=-0.0 size=   17365kB time=00:00:09.70 bitrate=14651.9kbits/s speed=0.0998x    frame=  236 fps=2.4 q=-0.0 size=   17365kB time=00:00:09.79 bitrate=14526.3kbits/s speed= 0.1x    frame=  238 fps=2.4 q=-0.0 size=   17365kB time=00:00:09.87 bitrate=14404.2kbits/s speed= 0.1x    frame=  240 fps=2.4 q=-0.0 size=   17365kB time=00:00:09.95 bitrate=14284.1kbits/s speed= 0.1x    frame=  242 fps=2.4 q=-0.0 size=   17365kB time=00:00:10.04 bitrate=14164.7kbits/s speed=0.101x    frame=  244 fps=2.4 q=-0.0 size=   17365kB time=00:00:10.12 bitrate=14048.5kbits/s speed=0.101x    frame=  246 fps=2.4 q=-0.0 size=   18432kB time=00:00:10.20 bitrate=14790.3kbits/s speed=0.101x    frame=  249 fps=2.4 q=-0.0 size=   18432kB time=00:00:10.33 bitrate=14611.4kbits/s speed=0.101x    frame=  251 fps=2.4 q=-0.0 size=   18432kB time=00:00:10.41 bitrate=14493.6kbits/s speed=0.102x    frame=  253 fps=2.4 q=-0.0 size=   18432kB time=00:00:10.50 bitrate=14379.0kbits/s speed=0.102x    frame=  255 fps=2.5 q=-0.0 size=   18432kB time=00:00:10.58 bitrate=14266.2kbits/s speed=0.102x    frame=  257 fps=2.5 q=-0.0 size=   18432kB time=00:00:10.66 bitrate=14153.9kbits/s speed=0.102x    frame=  260 fps=2.5 q=-0.0 size=   19169kB time=00:00:10.79 bitrate=14549.6kbits/s speed=0.102x    frame=  262 fps=2.5 q=-0.0 size=   19169kB time=00:00:10.87 bitrate=14438.6kbits/s speed=0.103x    frame=  264 fps=2.5 q=-0.0 size=   19169kB time=00:00:10.95 bitrate=14329.2kbits/s speed=0.103x    frame=  266 fps=2.5 q=-0.0 size=   19514kB time=00:00:11.04 bitrate=14476.0kbits/s speed=0.103x    frame=  268 fps=2.5 q=-0.0 size=   19514kB time=00:00:11.12 bitrate=14368.1kbits/s speed=0.103x    frame=  270 fps=2.5 q=-0.0 size=   19514kB time=00:00:11.20 bitrate=14261.7kbits/s speed=0.103x    frame=  272 fps=2.5 q=-0.0 size=   19514kB time=00:00:11.29 bitrate=14155.6kbits/s speed=0.103x    frame=  274 fps=2.5 q=-0.0 size=   19514kB time=00:00:11.37 bitrate=14052.3kbits/s speed=0.103x    frame=  276 fps=2.5 q=-0.0 size=   19514kB time=00:00:11.45 bitrate=13950.5kbits/s speed=0.104x    frame=  278 fps=2.5 q=-0.0 size=   20145kB time=00:00:11.54 bitrate=14296.9kbits/s speed=0.104x    frame=  280 fps=2.5 q=-0.0 size=   20145kB time=00:00:11.62 bitrate=14194.8kbits/s speed=0.104x    frame=  282 fps=2.5 q=-0.0 size=   20145kB time=00:00:11.70 bitrate=14094.2kbits/s speed=0.104x    frame=  284 fps=2.5 q=-0.0 size=   20145kB time=00:00:11.79 bitrate=13993.8kbits/s speed=0.104x    frame=  286 fps=2.5 q=-0.0 size=   20145kB time=00:00:11.87 bitrate=13896.0kbits/s speed=0.104x    frame=  288 fps=2.5 q=-0.0 size=   20145kB time=00:00:11.95 bitrate=13799.6kbits/s speed=0.104x    frame=  290 fps=2.5 q=-0.0 size=   21005kB time=00:00:12.04 bitrate=14288.5kbits/s speed=0.104x    frame=  292 fps=2.5 q=-0.0 size=   21005kB time=00:00:12.12 bitrate=14190.7kbits/s speed=0.104x    frame=  294 fps=2.5 q=-0.0 size=   21005kB time=00:00:12.20 bitrate=14094.2kbits/s speed=0.104x    frame=  296 fps=2.5 q=-0.0 size=   21005kB time=00:00:12.29 bitrate=13997.9kbits/s speed=0.104x    frame=  298 fps=2.5 q=-0.0 size=   21005kB time=00:00:12.37 bitrate=13904.0kbits/s speed=0.105x    frame=  300 fps=2.5 q=-0.0 size=   21005kB time=00:00:12.45 bitrate=13811.4kbits/s speed=0.105x    frame=  302 fps=2.5 q=-0.0 size=   21729kB time=00:00:12.54 bitrate=14191.4kbits/s speed=0.105x    frame=  304 fps=2.5 q=-0.0 size=   21729kB time=00:00:12.62 bitrate=14098.1kbits/s speed=0.105x    frame=  306 fps=2.5 q=-0.0 size=   21729kB time=00:00:12.70 bitrate=14006.0kbits/s speed=0.105x    frame=  308 fps=2.5 q=-0.0 size=   21729kB time=00:00:12.79 bitrate=13914.1kbits/s speed=0.105x    frame=  310 fps=2.5 q=-0.0 size=   21729kB time=00:00:12.87 bitrate=13824.4kbits/s speed=0.105x    frame=  312 fps=2.5 q=-0.0 size=   21729kB time=00:00:12.95 bitrate=13735.8kbits/s speed=0.105x    frame=  314 fps=2.5 q=-0.0 size=   22501kB time=00:00:13.04 bitrate=14132.7kbits/s speed=0.105x    frame=  316 fps=2.5 q=-0.0 size=   22501kB time=00:00:13.12 bitrate=14043.3kbits/s speed=0.105x    frame=  318 fps=2.5 q=-0.0 size=   22501kB time=00:00:13.20 bitrate=13955.0kbits/s speed=0.105x    frame=  320 fps=2.5 q=-0.0 size=   22501kB time=00:00:13.29 bitrate=13866.9kbits/s speed=0.105x    frame=  322 fps=2.5 q=-0.0 size=   22501kB time=00:00:13.37 bitrate=13780.8kbits/s speed=0.105x    frame=  324 fps=2.5 q=-0.0 size=   22501kB time=00:00:13.45 bitrate=13695.8kbits/s speed=0.105x    frame=  326 fps=2.5 q=-0.0 size=   23386kB time=00:00:13.54 bitrate=14145.8kbits/s speed=0.105x    frame=  328 fps=2.5 q=-0.0 size=   23386kB time=00:00:13.62 bitrate=14059.6kbits/s speed=0.106x    frame=  330 fps=2.5 q=-0.0 size=   23386kB time=00:00:13.70 bitrate=13974.5kbits/s speed=0.106x    frame=  332 fps=2.5 q=-0.0 size=   23386kB time=00:00:13.79 bitrate=13889.4kbits/s speed=0.106x    frame=  334 fps=2.5 q=-0.0 size=   23386kB time=00:00:13.87 bitrate=13806.3kbits/s speed=0.106x    frame=  336 fps=2.5 q=-0.0 size=   23386kB time=00:00:13.95 bitrate=13724.2kbits/s speed=0.106x    frame=  338 fps=2.5 q=-0.0 size=   24241kB time=00:00:14.04 bitrate=14140.8kbits/s speed=0.106x    frame=  340 fps=2.6 q=-0.0 size=   24241kB time=00:00:14.12 bitrate=14057.7kbits/s speed=0.106x    frame=  342 fps=2.6 q=-0.0 size=   24241kB time=00:00:14.20 bitrate=13975.6kbits/s speed=0.106x    frame=  344 fps=2.6 q=-0.0 size=   24241kB time=00:00:14.29 bitrate=13893.4kbits/s speed=0.106x    frame=  346 fps=2.6 q=-0.0 size=   24241kB time=00:00:14.37 bitrate=13813.2kbits/s speed=0.106x    frame=  348 fps=2.6 q=-0.0 size=   24241kB time=00:00:14.45 bitrate=13733.9kbits/s speed=0.106x    frame=  350 fps=2.6 q=-0.0 size=   25071kB time=00:00:14.54 bitrate=14122.5kbits/s speed=0.106x    frame=  352 fps=2.6 q=-0.0 size=   25071kB time=00:00:14.62 bitrate=14042.3kbits/s speed=0.107x    frame=  354 fps=2.6 q=-0.0 size=   25071kB time=00:00:14.70 bitrate=13963.1kbits/s speed=0.107x    frame=  356 fps=2.6 q=-0.0 size=   25071kB time=00:00:14.79 bitrate=13883.8kbits/s speed=0.107x    frame=  358 fps=2.6 q=-0.0 size=   25071kB time=00:00:14.87 bitrate=13806.3kbits/s speed=0.107x    frame=  360 fps=2.6 q=-0.0 size=   25071kB time=00:00:14.95 bitrate=13729.7kbits/s speed=0.107x    frame=  362 fps=2.6 q=-0.0 size=   25971kB time=00:00:15.04 bitrate=14143.0kbits/s speed=0.107x    frame=  364 fps=2.6 q=-0.0 size=   26269kB time=00:00:15.12 bitrate=14226.8kbits/s speed=0.107x    frame=  366 fps=2.6 q=-0.0 size=   26269kB time=00:00:15.20 bitrate=14149.1kbits/s speed=0.107x    frame=  368 fps=2.6 q=-0.0 size=   26269kB time=00:00:15.29 bitrate=14071.4kbits/s speed=0.107x    frame=  370 fps=2.6 q=-0.0 size=   26269kB time=00:00:15.37 bitrate=13995.4kbits/s speed=0.107x    frame=  372 fps=2.6 q=-0.0 size=   26269kB time=00:00:15.45 bitrate=13920.3kbits/s speed=0.107x    frame=  374 fps=2.6 q=-0.0 size=   26269kB time=00:00:15.54 bitrate=13845.1kbits/s speed=0.107x    frame=  376 fps=2.6 q=-0.0 size=   27090kB time=00:00:15.62 bitrate=14202.3kbits/s speed=0.107x    frame=  378 fps=2.6 q=-0.0 size=   27090kB time=00:00:15.70 bitrate=14127.3kbits/s speed=0.107x    frame=  380 fps=2.6 q=-0.0 size=   27090kB time=00:00:15.79 bitrate=14052.1kbits/s speed=0.107x    frame=  382 fps=2.6 q=-0.0 size=   27090kB time=00:00:15.87 bitrate=13978.7kbits/s speed=0.107x    frame=  384 fps=2.6 q=-0.0 size=   27090kB time=00:00:15.95 bitrate=13906.0kbits/s speed=0.107x    frame=  386 fps=2.6 q=-0.0 size=   27090kB time=00:00:16.04 bitrate=13833.2kbits/s speed=0.107x    frame=  388 fps=2.6 q=-0.0 size=   27848kB time=00:00:16.12 bitrate=14146.9kbits/s speed=0.108x    frame=  390 fps=2.6 q=-0.0 size=   27848kB time=00:00:16.20 bitrate=14074.5kbits/s speed=0.108x    frame=  392 fps=2.6 q=-0.0 size=   27848kB time=00:00:16.29 bitrate=14001.9kbits/s speed=0.108x    frame=  394 fps=2.6 q=-0.0 size=   27848kB time=00:00:16.37 bitrate=13930.9kbits/s speed=0.108x    frame=  396 fps=2.6 q=-0.0 size=   27848kB time=00:00:16.45 bitrate=13860.7kbits/s speed=0.108x    frame=  398 fps=2.6 q=-0.0 size=   27848kB time=00:00:16.54 bitrate=13790.3kbits/s speed=0.108x    frame=  400 fps=2.6 q=-0.0 size=   29097kB time=00:00:16.62 bitrate=14336.5kbits/s speed=0.108x    frame=  402 fps=2.6 q=-0.0 size=   29097kB time=00:00:16.70 bitrate=14265.3kbits/s speed=0.108x    frame=  404 fps=2.6 q=-0.0 size=   29097kB time=00:00:16.79 bitrate=14194.0kbits/s speed=0.108x    frame=  406 fps=2.6 q=-0.0 size=   29097kB time=00:00:16.87 bitrate=14124.1kbits/s speed=0.108x    frame=  408 fps=2.6 q=-0.0 size=   29097kB time=00:00:16.95 bitrate=14055.0kbits/s speed=0.108x    frame=  410 fps=2.6 q=-0.0 size=   29097kB time=00:00:17.04 bitrate=13985.7kbits/s speed=0.108x    frame=  412 fps=2.6 q=-0.0 size=   29868kB time=00:00:17.12 bitrate=14287.2kbits/s speed=0.108x    frame=  414 fps=2.6 q=-0.0 size=   29868kB time=00:00:17.20 bitrate=14218.2kbits/s speed=0.108x    frame=  416 fps=2.6 q=-0.0 size=   29868kB time=00:00:17.29 bitrate=14149.2kbits/s speed=0.108x    frame=  418 fps=2.6 q=-0.0 size=   29868kB time=00:00:17.37 bitrate=14081.6kbits/s speed=0.108x    frame=  420 fps=2.6 q=-0.0 size=   30314kB time=00:00:17.45 bitrate=14223.9kbits/s speed=0.108x    frame=  422 fps=2.6 q=-0.0 size=   30314kB time=00:00:17.54 bitrate=14155.8kbits/s speed=0.108x    frame=  424 fps=2.6 q=-0.0 size=   30314kB time=00:00:17.62 bitrate=14089.2kbits/s speed=0.108x    frame=  426 fps=2.6 q=-0.0 size=   30314kB time=00:00:17.70 bitrate=14023.1kbits/s speed=0.108x    frame=  428 fps=2.6 q=-0.0 size=   30314kB time=00:00:17.79 bitrate=13956.9kbits/s speed=0.108x    frame=  430 fps=2.6 q=-0.0 size=   30314kB time=00:00:17.87 bitrate=13892.1kbits/s speed=0.108x    frame=  433 fps=2.6 q=-0.0 size=   31365kB time=00:00:18.00 bitrate=14273.9kbits/s speed=0.109x    frame=  435 fps=2.6 q=-0.0 size=   31365kB time=00:00:18.08 bitrate=14208.4kbits/s speed=0.109x    frame=  437 fps=2.6 q=-0.0 size=   31365kB time=00:00:18.16 bitrate=14142.7kbits/s speed=0.109x    frame=  439 fps=2.6 q=-0.0 size=   31365kB time=00:00:18.25 bitrate=14078.4kbits/s speed=0.109x    frame=  441 fps=2.6 q=-0.0 size=   31365kB time=00:00:18.33 bitrate=14014.7kbits/s speed=0.109x    frame=  443 fps=2.6 q=-0.0 size=   31979kB time=00:00:18.41 bitrate=14223.6kbits/s speed=0.109x    frame=  445 fps=2.6 q=-0.0 size=   31979kB time=00:00:18.50 bitrate=14159.8kbits/s speed=0.109x    frame=  447 fps=2.6 q=-0.0 size=   31979kB time=00:00:18.58 bitrate=14096.6kbits/s speed=0.109x    frame=  449 fps=2.6 q=-0.0 size=   31979kB time=00:00:18.66 bitrate=14033.1kbits/s speed=0.109x    frame=  451 fps=2.6 q=-0.0 size=   31979kB time=00:00:18.75 bitrate=13971.0kbits/s speed=0.109x    frame=  453 fps=2.6 q=-0.0 size=   31979kB time=00:00:18.83 bitrate=13909.5kbits/s speed=0.109x    frame=  455 fps=2.6 q=-0.0 size=   32831kB time=00:00:18.91 bitrate=14216.7kbits/s speed=0.109x    frame=  457 fps=2.6 q=-0.0 size=   32831kB time=00:00:19.00 bitrate=14154.6kbits/s speed=0.109x    frame=  459 fps=2.6 q=-0.0 size=   32831kB time=00:00:19.08 bitrate=14093.1kbits/s speed=0.109x    frame=  461 fps=2.6 q=-0.0 size=   32831kB time=00:00:19.16 bitrate=14031.3kbits/s speed=0.109x    frame=  463 fps=2.6 q=-0.0 size=   32831kB time=00:00:19.25 bitrate=13970.8kbits/s speed=0.11x    frame=  465 fps=2.6 q=-0.0 size=   32831kB time=00:00:19.33 bitrate=13910.8kbits/s speed=0.11x    frame=  467 fps=2.6 q=-0.0 size=   33636kB time=00:00:19.41 bitrate=14190.2kbits/s speed=0.11x    frame=  469 fps=2.6 q=-0.0 size=   33636kB time=00:00:19.50 bitrate=14129.8kbits/s speed=0.11x    frame=  471 fps=2.6 q=-0.0 size=   33636kB time=00:00:19.58 bitrate=14069.9kbits/s speed=0.11x    frame=  473 fps=2.6 q=-0.0 size=   33636kB time=00:00:19.66 bitrate=14009.8kbits/s speed=0.11x    frame=  475 fps=2.6 q=-0.0 size=   33636kB time=00:00:19.75 bitrate=13950.9kbits/s speed=0.11x    frame=  477 fps=2.6 q=-0.0 size=   33636kB time=00:00:19.83 bitrate=13892.6kbits/s speed=0.11x    frame=  479 fps=2.6 q=-0.0 size=   34483kB time=00:00:19.91 bitrate=14182.4kbits/s speed=0.11x    frame=  481 fps=2.6 q=-0.0 size=   34483kB time=00:00:20.00 bitrate=14123.6kbits/s speed=0.11x    frame=  483 fps=2.6 q=-0.0 size=   34483kB time=00:00:20.08 bitrate=14065.2kbits/s speed=0.11x    frame=  485 fps=2.6 q=-0.0 size=   34483kB time=00:00:20.16 bitrate=14006.6kbits/s speed=0.11x    frame=  487 fps=2.6 q=-0.0 size=   34483kB time=00:00:20.25 bitrate=13949.2kbits/s speed=0.11x    frame=  489 fps=2.6 q=-0.0 size=   34483kB time=00:00:20.33 bitrate=13892.3kbits/s speed=0.11x    frame=  491 fps=2.6 q=-0.0 size=   35227kB time=00:00:20.41 bitrate=14133.5kbits/s speed=0.11x    frame=  493 fps=2.7 q=-0.0 size=   35227kB time=00:00:20.50 bitrate=14076.3kbits/s speed=0.11x    frame=  495 fps=2.7 q=-0.0 size=   35227kB time=00:00:20.58 bitrate=14019.6kbits/s speed=0.11x    frame=  497 fps=2.7 q=-0.0 size=   35227kB time=00:00:20.66 bitrate=13962.6kbits/s speed=0.11x    frame=  499 fps=2.7 q=-0.0 size=   35227kB time=00:00:20.75 bitrate=13906.7kbits/s speed=0.11x    frame=  500 fps=2.6 q=-0.0 size=   35227kB time=00:00:20.79 bitrate=13878.6kbits/s speed=0.11x    frame=  500 fps=2.6 q=-0.0 Lsize=   36022kB time=00:00:20.79 bitrate=14192.0kbits/s speed=0.11x    
video:36009kB audio:0kB subtitle:0kB other streams:0kB global headers:3kB muxing overhead: 0.035991%
bench: utime=167.488s
bench: maxrss=251280kB
